<?xml version="1.0" standalone="no"?><svg xmlns:xlink="http://www.w3.org/1999/xlink" xmlns="http://www.w3.org/2000/svg" viewBox="0 0 1000 562.503097484017" preserveAspectRatio="xMaxYMax slice"><g transform="scale(0.8259957378619925)"><rect x="0" y="0" width="1210.6666666666667" height="681" fill="#0a0a0a"/><circle cx="37.835" cy="37.835" r="37.835" fill="#c70036"/><circle cx="113.505" cy="37.835" r="37.835" fill="#c70036"/><rect x="151.33333333333334" y="0" width="75.66666666666667" height="75.66666666666667" fill="#0a0a0a"/><circle cx="170.245" cy="18.915" r="18.915" fill="#a50036"/><circle cx="208.08499999999998" cy="18.915" r="18.915" fill="#c70036"/><circle cx="170.245" cy="56.745" r="18.915" fill="#c70036"/><circle cx="208.08499999999998" cy="56.745" r="18.915" fill="#c70036"/><circle cx="264.835" cy="37.835" r="37.835" fill="#a50036"/><circle cx="340.505" cy="37.835" r="37.835" fill="#a50036"/><rect x="378.33333333333337" y="0" width="75.66666666666667" height="75.66666666666667" fill="#0a0a0a"/><circle cx="397.245" cy="18.915" r="18.915" fill="#a50036"/><circle cx="435.08500000000004" cy="18.915" r="18.915" fill="#c70036"/><circle cx="397.245" cy="56.745" r="18.915" fill="#a50036"/><circle cx="435.08500000000004" cy="56.745" r="18.915" fill="#c70036"/><rect x="454" y="0" width="75.66666666666667" height="75.66666666666667" fill="#0a0a0a"/><circle cx="472.915" cy="18.915" r="18.915" fill="#a50036"/><circle cx="510.745" cy="18.915" r="18.915" fill="#a50036"/><circle cx="472.915" cy="56.745" r="18.915" fill="#a50036"/><circle cx="510.745" cy="56.745" r="18.915" fill="#a50036"/><circle cx="567.505" cy="37.835" r="37.835" fill="#a50036"/><circle cx="643.1650000000001" cy="37.835" r="37.835" fill="#c70036"/><rect x="681" y="0" width="75.66666666666667" height="75.66666666666667" fill="#0a0a0a"/><circle cx="699.915" cy="18.915" r="18.915" fill="#a50036"/><circle cx="737.745" cy="18.915" r="18.915" fill="#a50036"/><circle cx="699.915" cy="56.745" r="18.915" fill="#a50036"/><circle cx="737.745" cy="56.745" r="18.915" fill="#a50036"/><rect x="756.6666666666667" y="0" width="75.66666666666667" height="75.66666666666667" fill="#0a0a0a"/><circle cx="775.5849999999999" cy="18.915" r="18.915" fill="#a50036"/><circle cx="813.415" cy="18.915" r="18.915" fill="#a50036"/><circle cx="775.5849999999999" cy="56.745" r="18.915" fill="#a50036"/><circle cx="813.415" cy="56.745" r="18.915" fill="#c70036"/><rect x="832.3333333333334" y="0" width="75.66666666666667" height="75.66666666666667" fill="#0a0a0a"/><circle cx="851.245" cy="18.915" r="18.915" fill="#c70036"/><circle cx="889.0849999999999" cy="18.915" r="18.915" fill="#a50036"/><circle cx="851.245" cy="56.745" r="18.915" fill="#c70036"/><circle cx="889.0849999999999" cy="56.745" r="18.915" fill="#c70036"/><rect x="908" y="0" width="75.66666666666667" height="75.66666666666667" fill="#0a0a0a"/><circle cx="926.915" cy="18.915" r="18.915" fill="#a50036"/><circle cx="964.745" cy="18.915" r="18.915" fill="#a50036"/><circle cx="926.915" cy="56.745" r="18.915" fill="#a50036"/><circle cx="964.745" cy="56.745" r="18.915" fill="#c70036"/><rect x="983.6666666666667" y="0" width="75.66666666666667" height="75.66666666666667" fill="#0a0a0a"/><circle cx="1002.5849999999999" cy="18.915" r="18.915" fill="#a50036"/><circle cx="1040.415" cy="18.915" r="18.915" fill="#c70036"/><circle cx="1002.5849999999999" cy="56.745" r="18.915" fill="#c70036"/><circle cx="1040.415" cy="56.745" r="18.915" fill="#c70036"/><rect x="1059.3333333333335" y="0" width="75.66666666666667" height="75.66666666666667" fill="#0a0a0a"/><circle cx="1078.245" cy="18.915" r="18.915" fill="#a50036"/><circle cx="1116.085" cy="18.915" r="18.915" fill="#a50036"/><circle cx="1078.245" cy="56.745" r="18.915" fill="#a50036"/><circle cx="1116.085" cy="56.745" r="18.915" fill="#a50036"/><rect x="1135" y="0" width="75.66666666666667" height="75.66666666666667" fill="#0a0a0a"/><circle cx="1153.915" cy="18.915" r="18.915" fill="#c70036"/><circle cx="1191.745" cy="18.915" r="18.915" fill="#c70036"/><circle cx="1153.915" cy="56.745" r="18.915" fill="#a50036"/><circle cx="1191.745" cy="56.745" r="18.915" fill="#c70036"/><circle cx="37.835" cy="113.505" r="37.835" fill="#a50036"/><circle cx="113.505" cy="113.505" r="37.835" fill="#a50036"/><circle cx="189.16500000000002" cy="113.505" r="37.835" fill="#a50036"/><rect x="227" y="75.66666666666667" width="75.66666666666667" height="75.66666666666667" fill="#0a0a0a"/><circle cx="245.915" cy="94.58500000000001" r="18.915" fill="#a50036"/><circle cx="283.745" cy="94.58500000000001" r="18.915" fill="#c70036"/><circle cx="245.915" cy="132.415" r="18.915" fill="#a50036"/><circle cx="283.745" cy="132.415" r="18.915" fill="#a50036"/><circle cx="340.505" cy="113.505" r="37.835" fill="#a50036"/><rect x="378.33333333333337" y="75.66666666666667" width="75.66666666666667" height="75.66666666666667" fill="#0a0a0a"/><circle cx="397.245" cy="94.58500000000001" r="18.915" fill="#a50036"/><circle cx="435.08500000000004" cy="94.58500000000001" r="18.915" fill="#c70036"/><circle cx="397.245" cy="132.415" r="18.915" fill="#a50036"/><circle cx="435.08500000000004" cy="132.415" r="18.915" fill="#a50036"/><circle cx="491.835" cy="113.505" r="37.835" fill="#c70036"/><circle cx="567.505" cy="113.505" r="37.835" fill="#c70036"/><circle cx="643.1650000000001" cy="113.505" r="37.835" fill="#c70036"/><rect x="681" y="75.66666666666667" width="75.66666666666667" height="75.66666666666667" fill="#0a0a0a"/><circle cx="699.915" cy="94.58500000000001" r="18.915" fill="#c70036"/><circle cx="737.745" cy="94.58500000000001" r="18.915" fill="#a50036"/><circle cx="699.915" cy="132.415" r="18.915" fill="#c70036"/><circle cx="737.745" cy="132.415" r="18.915" fill="#c70036"/><circle cx="794.505" cy="113.505" r="37.835" fill="#a50036"/><rect x="832.3333333333334" y="75.66666666666667" width="75.66666666666667" height="75.66666666666667" fill="#0a0a0a"/><circle cx="851.245" cy="94.58500000000001" r="18.915" fill="#a50036"/><circle cx="889.0849999999999" cy="94.58500000000001" r="18.915" fill="#c70036"/><circle cx="851.245" cy="132.415" r="18.915" fill="#c70036"/><circle cx="889.0849999999999" cy="132.415" r="18.915" fill="#c70036"/><circle cx="945.835" cy="113.505" r="37.835" fill="#c70036"/><circle cx="1021.505" cy="113.505" r="37.835" fill="#a50036"/><circle cx="1097.165" cy="113.505" r="37.835" fill="#a50036"/><circle cx="1172.835" cy="113.505" r="37.835" fill="#c70036"/><circle cx="37.835" cy="189.16500000000002" r="37.835" fill="#a50036"/><circle cx="113.505" cy="189.16500000000002" r="37.835" fill="#c70036"/><rect x="151.33333333333334" y="151.33333333333334" width="75.66666666666667" height="75.66666666666667" fill="#0a0a0a"/><circle cx="170.245" cy="170.245" r="18.915" fill="#c70036"/><circle cx="208.08499999999998" cy="170.245" r="18.915" fill="#a50036"/><circle cx="170.245" cy="208.08499999999998" r="18.915" fill="#c70036"/><circle cx="208.08499999999998" cy="208.08499999999998" r="18.915" fill="#a50036"/><circle cx="264.835" cy="189.16500000000002" r="37.835" fill="#a50036"/><circle cx="340.505" cy="189.16500000000002" r="37.835" fill="#a50036"/><rect x="378.33333333333337" y="151.33333333333334" width="75.66666666666667" height="75.66666666666667" fill="#0a0a0a"/><circle cx="397.245" cy="170.245" r="18.915" fill="#a50036"/><circle cx="435.08500000000004" cy="170.245" r="18.915" fill="#a50036"/><circle cx="397.245" cy="208.08499999999998" r="18.915" fill="#c70036"/><circle cx="435.08500000000004" cy="208.08499999999998" r="18.915" fill="#a50036"/><circle cx="491.835" cy="189.16500000000002" r="37.835" fill="#c70036"/><circle cx="567.505" cy="189.16500000000002" r="37.835" fill="#c70036"/><circle cx="643.1650000000001" cy="189.16500000000002" r="37.835" fill="#a50036"/><circle cx="718.835" cy="189.16500000000002" r="37.835" fill="#a50036"/><rect x="756.6666666666667" y="151.33333333333334" width="75.66666666666667" height="75.66666666666667" fill="#0a0a0a"/><circle cx="775.5849999999999" cy="170.245" r="18.915" fill="#a50036"/><circle cx="813.415" cy="170.245" r="18.915" fill="#c70036"/><circle cx="775.5849999999999" cy="208.08499999999998" r="18.915" fill="#a50036"/><circle cx="813.415" cy="208.08499999999998" r="18.915" fill="#c70036"/><rect x="832.3333333333334" y="151.33333333333334" width="75.66666666666667" height="75.66666666666667" fill="#0a0a0a"/><circle cx="851.245" cy="170.245" r="18.915" fill="#a50036"/><circle cx="889.0849999999999" cy="170.245" r="18.915" fill="#a50036"/><circle cx="851.245" cy="208.08499999999998" r="18.915" fill="#c70036"/><circle cx="889.0849999999999" cy="208.08499999999998" r="18.915" fill="#c70036"/><rect x="908" y="151.33333333333334" width="75.66666666666667" height="75.66666666666667" fill="#0a0a0a"/><circle cx="926.915" cy="170.245" r="18.915" fill="#a50036"/><circle cx="964.745" cy="170.245" r="18.915" fill="#c70036"/><circle cx="926.915" cy="208.08499999999998" r="18.915" fill="#c70036"/><circle cx="964.745" cy="208.08499999999998" r="18.915" fill="#a50036"/><rect x="983.6666666666667" y="151.33333333333334" width="75.66666666666667" height="75.66666666666667" fill="#0a0a0a"/><circle cx="1002.5849999999999" cy="170.245" r="18.915" fill="#c70036"/><circle cx="1040.415" cy="170.245" r="18.915" fill="#a50036"/><circle cx="1002.5849999999999" cy="208.08499999999998" r="18.915" fill="#c70036"/><circle cx="1040.415" cy="208.08499999999998" r="18.915" fill="#a50036"/><rect x="1059.3333333333335" y="151.33333333333334" width="75.66666666666667" height="75.66666666666667" fill="#0a0a0a"/><circle cx="1078.245" cy="170.245" r="18.915" fill="#c70036"/><circle cx="1116.085" cy="170.245" r="18.915" fill="#c70036"/><circle cx="1078.245" cy="208.08499999999998" r="18.915" fill="#a50036"/><circle cx="1116.085" cy="208.08499999999998" r="18.915" fill="#a50036"/><circle cx="1172.835" cy="189.16500000000002" r="37.835" fill="#a50036"/><circle cx="37.835" cy="264.835" r="37.835" fill="#a50036"/><rect x="75.66666666666667" y="227" width="75.66666666666667" height="75.66666666666667" fill="#0a0a0a"/><circle cx="94.58500000000001" cy="245.915" r="18.915" fill="#c70036"/><circle cx="132.415" cy="245.915" r="18.915" fill="#c70036"/><circle cx="94.58500000000001" cy="283.745" r="18.915" fill="#a50036"/><circle cx="132.415" cy="283.745" r="18.915" fill="#a50036"/><circle cx="189.16500000000002" cy="264.835" r="37.835" fill="#c70036"/><circle cx="264.835" cy="264.835" r="37.835" fill="#a50036"/><circle cx="340.505" cy="264.835" r="37.835" fill="#a50036"/><rect x="378.33333333333337" y="227" width="75.66666666666667" height="75.66666666666667" fill="#0a0a0a"/><circle cx="397.245" cy="245.915" r="18.915" fill="#a50036"/><circle cx="435.08500000000004" cy="245.915" r="18.915" fill="#a50036"/><circle cx="397.245" cy="283.745" r="18.915" fill="#c70036"/><circle cx="435.08500000000004" cy="283.745" r="18.915" fill="#a50036"/><circle cx="491.835" cy="264.835" r="37.835" fill="#c70036"/><circle cx="567.505" cy="264.835" r="37.835" fill="#a50036"/><rect x="605.3333333333334" y="227" width="75.66666666666667" height="75.66666666666667" fill="#0a0a0a"/><circle cx="624.245" cy="245.915" r="18.915" fill="#c70036"/><circle cx="662.0849999999999" cy="245.915" r="18.915" fill="#c70036"/><circle cx="624.245" cy="283.745" r="18.915" fill="#a50036"/><circle cx="662.0849999999999" cy="283.745" r="18.915" fill="#a50036"/><rect x="681" y="227" width="75.66666666666667" height="75.66666666666667" fill="#0a0a0a"/><circle cx="699.915" cy="245.915" r="18.915" fill="#c70036"/><circle cx="737.745" cy="245.915" r="18.915" fill="#a50036"/><circle cx="699.915" cy="283.745" r="18.915" fill="#c70036"/><circle cx="737.745" cy="283.745" r="18.915" fill="#c70036"/><circle cx="794.505" cy="264.835" r="37.835" fill="#a50036"/><circle cx="870.1650000000001" cy="264.835" r="37.835" fill="#c70036"/><rect x="908" y="227" width="75.66666666666667" height="75.66666666666667" fill="#0a0a0a"/><circle cx="926.915" cy="245.915" r="18.915" fill="#a50036"/><circle cx="964.745" cy="245.915" r="18.915" fill="#c70036"/><circle cx="926.915" cy="283.745" r="18.915" fill="#c70036"/><circle cx="964.745" cy="283.745" r="18.915" fill="#a50036"/><circle cx="1021.505" cy="264.835" r="37.835" fill="#c70036"/><circle cx="1097.165" cy="264.835" r="37.835" fill="#a50036"/><circle cx="1172.835" cy="264.835" r="37.835" fill="#a50036"/><rect x="0" y="302.6666666666667" width="75.66666666666667" height="75.66666666666667" fill="#0a0a0a"/><circle cx="18.915" cy="321.58500000000004" r="18.915" fill="#c70036"/><circle cx="56.745" cy="321.58500000000004" r="18.915" fill="#c70036"/><circle cx="18.915" cy="359.415" r="18.915" fill="#a50036"/><circle cx="56.745" cy="359.415" r="18.915" fill="#c70036"/><circle cx="113.505" cy="340.505" r="37.835" fill="#a50036"/><rect x="151.33333333333334" y="302.6666666666667" width="75.66666666666667" height="75.66666666666667" fill="#0a0a0a"/><circle cx="170.245" cy="321.58500000000004" r="18.915" fill="#c70036"/><circle cx="208.08499999999998" cy="321.58500000000004" r="18.915" fill="#a50036"/><circle cx="170.245" cy="359.415" r="18.915" fill="#a50036"/><circle cx="208.08499999999998" cy="359.415" r="18.915" fill="#a50036"/><rect x="227" y="302.6666666666667" width="75.66666666666667" height="75.66666666666667" fill="#0a0a0a"/><circle cx="245.915" cy="321.58500000000004" r="18.915" fill="#c70036"/><circle cx="283.745" cy="321.58500000000004" r="18.915" fill="#c70036"/><circle cx="245.915" cy="359.415" r="18.915" fill="#a50036"/><circle cx="283.745" cy="359.415" r="18.915" fill="#c70036"/><rect x="302.6666666666667" y="302.6666666666667" width="75.66666666666667" height="75.66666666666667" fill="#0a0a0a"/><circle cx="321.58500000000004" cy="321.58500000000004" r="18.915" fill="#a50036"/><circle cx="359.415" cy="321.58500000000004" r="18.915" fill="#c70036"/><circle cx="321.58500000000004" cy="359.415" r="18.915" fill="#c70036"/><circle cx="359.415" cy="359.415" r="18.915" fill="#c70036"/><circle cx="416.16499999999996" cy="340.505" r="37.835" fill="#c70036"/><rect x="454" y="302.6666666666667" width="75.66666666666667" height="75.66666666666667" fill="#0a0a0a"/><circle cx="472.915" cy="321.58500000000004" r="18.915" fill="#a50036"/><circle cx="510.745" cy="321.58500000000004" r="18.915" fill="#a50036"/><circle cx="472.915" cy="359.415" r="18.915" fill="#a50036"/><circle cx="510.745" cy="359.415" r="18.915" fill="#c70036"/><rect x="529.6666666666667" y="302.6666666666667" width="75.66666666666667" height="75.66666666666667" fill="#0a0a0a"/><circle cx="548.5849999999999" cy="321.58500000000004" r="18.915" fill="#a50036"/><circle cx="586.415" cy="321.58500000000004" r="18.915" fill="#a50036"/><circle cx="548.5849999999999" cy="359.415" r="18.915" fill="#c70036"/><circle cx="586.415" cy="359.415" r="18.915" fill="#c70036"/><rect x="605.3333333333334" y="302.6666666666667" width="75.66666666666667" height="75.66666666666667" fill="#0a0a0a"/><circle cx="624.245" cy="321.58500000000004" r="18.915" fill="#c70036"/><circle cx="662.0849999999999" cy="321.58500000000004" r="18.915" fill="#c70036"/><circle cx="624.245" cy="359.415" r="18.915" fill="#c70036"/><circle cx="662.0849999999999" cy="359.415" r="18.915" fill="#c70036"/><circle cx="718.835" cy="340.505" r="37.835" fill="#c70036"/><rect x="756.6666666666667" y="302.6666666666667" width="75.66666666666667" height="75.66666666666667" fill="#0a0a0a"/><circle cx="775.5849999999999" cy="321.58500000000004" r="18.915" fill="#a50036"/><circle cx="813.415" cy="321.58500000000004" r="18.915" fill="#c70036"/><circle cx="775.5849999999999" cy="359.415" r="18.915" fill="#c70036"/><circle cx="813.415" cy="359.415" r="18.915" fill="#a50036"/><rect x="832.3333333333334" y="302.6666666666667" width="75.66666666666667" height="75.66666666666667" fill="#0a0a0a"/><circle cx="851.245" cy="321.58500000000004" r="18.915" fill="#a50036"/><circle cx="889.0849999999999" cy="321.58500000000004" r="18.915" fill="#a50036"/><circle cx="851.245" cy="359.415" r="18.915" fill="#a50036"/><circle cx="889.0849999999999" cy="359.415" r="18.915" fill="#c70036"/><circle cx="945.835" cy="340.505" r="37.835" fill="#a50036"/><circle cx="1021.505" cy="340.505" r="37.835" fill="#a50036"/><circle cx="1097.165" cy="340.505" r="37.835" fill="#a50036"/><rect x="1135" y="302.6666666666667" width="75.66666666666667" height="75.66666666666667" fill="#0a0a0a"/><circle cx="1153.915" cy="321.58500000000004" r="18.915" fill="#a50036"/><circle cx="1191.745" cy="321.58500000000004" r="18.915" fill="#c70036"/><circle cx="1153.915" cy="359.415" r="18.915" fill="#c70036"/><circle cx="1191.745" cy="359.415" r="18.915" fill="#a50036"/><circle cx="37.835" cy="416.16499999999996" r="37.835" fill="#a50036"/><circle cx="113.505" cy="416.16499999999996" r="37.835" fill="#a50036"/><circle cx="189.16500000000002" cy="416.16499999999996" r="37.835" fill="#c70036"/><rect x="227" y="378.33333333333337" width="75.66666666666667" height="75.66666666666667" fill="#0a0a0a"/><circle cx="245.915" cy="397.245" r="18.915" fill="#a50036"/><circle cx="283.745" cy="397.245" r="18.915" fill="#a50036"/><circle cx="245.915" cy="435.08500000000004" r="18.915" fill="#c70036"/><circle cx="283.745" cy="435.08500000000004" r="18.915" fill="#c70036"/><circle cx="340.505" cy="416.16499999999996" r="37.835" fill="#a50036"/><rect x="378.33333333333337" y="378.33333333333337" width="75.66666666666667" height="75.66666666666667" fill="#0a0a0a"/><circle cx="397.245" cy="397.245" r="18.915" fill="#a50036"/><circle cx="435.08500000000004" cy="397.245" r="18.915" fill="#a50036"/><circle cx="397.245" cy="435.08500000000004" r="18.915" fill="#a50036"/><circle cx="435.08500000000004" cy="435.08500000000004" r="18.915" fill="#c70036"/><circle cx="491.835" cy="416.16499999999996" r="37.835" fill="#c70036"/><rect x="529.6666666666667" y="378.33333333333337" width="75.66666666666667" height="75.66666666666667" fill="#0a0a0a"/><circle cx="548.5849999999999" cy="397.245" r="18.915" fill="#c70036"/><circle cx="586.415" cy="397.245" r="18.915" fill="#a50036"/><circle cx="548.5849999999999" cy="435.08500000000004" r="18.915" fill="#a50036"/><circle cx="586.415" cy="435.08500000000004" r="18.915" fill="#a50036"/><rect x="605.3333333333334" y="378.33333333333337" width="75.66666666666667" height="75.66666666666667" fill="#0a0a0a"/><circle cx="624.245" cy="397.245" r="18.915" fill="#a50036"/><circle cx="662.0849999999999" cy="397.245" r="18.915" fill="#c70036"/><circle cx="624.245" cy="435.08500000000004" r="18.915" fill="#c70036"/><circle cx="662.0849999999999" cy="435.08500000000004" r="18.915" fill="#a50036"/><circle cx="718.835" cy="416.16499999999996" r="37.835" fill="#c70036"/><circle cx="794.505" cy="416.16499999999996" r="37.835" fill="#a50036"/><rect x="832.3333333333334" y="378.33333333333337" width="75.66666666666667" height="75.66666666666667" fill="#0a0a0a"/><circle cx="851.245" cy="397.245" r="18.915" fill="#a50036"/><circle cx="889.0849999999999" cy="397.245" r="18.915" fill="#c70036"/><circle cx="851.245" cy="435.08500000000004" r="18.915" fill="#a50036"/><circle cx="889.0849999999999" cy="435.08500000000004" r="18.915" fill="#a50036"/><circle cx="945.835" cy="416.16499999999996" r="37.835" fill="#a50036"/><circle cx="1021.505" cy="416.16499999999996" r="37.835" fill="#c70036"/><circle cx="1097.165" cy="416.16499999999996" r="37.835" fill="#c70036"/><circle cx="1172.835" cy="416.16499999999996" r="37.835" fill="#c70036"/><rect x="0" y="454" width="75.66666666666667" height="75.66666666666667" fill="#0a0a0a"/><circle cx="18.915" cy="472.915" r="18.915" fill="#a50036"/><circle cx="56.745" cy="472.915" r="18.915" fill="#a50036"/><circle cx="18.915" cy="510.745" r="18.915" fill="#c70036"/><circle cx="56.745" cy="510.745" r="18.915" fill="#a50036"/><rect x="75.66666666666667" y="454" width="75.66666666666667" height="75.66666666666667" fill="#0a0a0a"/><circle cx="94.58500000000001" cy="472.915" r="18.915" fill="#c70036"/><circle cx="132.415" cy="472.915" r="18.915" fill="#c70036"/><circle cx="94.58500000000001" cy="510.745" r="18.915" fill="#c70036"/><circle cx="132.415" cy="510.745" r="18.915" fill="#a50036"/><circle cx="189.16500000000002" cy="491.835" r="37.835" fill="#a50036"/><circle cx="264.835" cy="491.835" r="37.835" fill="#c70036"/><circle cx="340.505" cy="491.835" r="37.835" fill="#a50036"/><rect x="378.33333333333337" y="454" width="75.66666666666667" height="75.66666666666667" fill="#0a0a0a"/><circle cx="397.245" cy="472.915" r="18.915" fill="#c70036"/><circle cx="435.08500000000004" cy="472.915" r="18.915" fill="#a50036"/><circle cx="397.245" cy="510.745" r="18.915" fill="#c70036"/><circle cx="435.08500000000004" cy="510.745" r="18.915" fill="#a50036"/><circle cx="491.835" cy="491.835" r="37.835" fill="#a50036"/><circle cx="567.505" cy="491.835" r="37.835" fill="#a50036"/><circle cx="643.1650000000001" cy="491.835" r="37.835" fill="#a50036"/><circle cx="718.835" cy="491.835" r="37.835" fill="#a50036"/><circle cx="794.505" cy="491.835" r="37.835" fill="#a50036"/><rect x="832.3333333333334" y="454" width="75.66666666666667" height="75.66666666666667" fill="#0a0a0a"/><circle cx="851.245" cy="472.915" r="18.915" fill="#a50036"/><circle cx="889.0849999999999" cy="472.915" r="18.915" fill="#a50036"/><circle cx="851.245" cy="510.745" r="18.915" fill="#c70036"/><circle cx="889.0849999999999" cy="510.745" r="18.915" fill="#c70036"/><circle cx="945.835" cy="491.835" r="37.835" fill="#a50036"/><rect x="983.6666666666667" y="454" width="75.66666666666667" height="75.66666666666667" fill="#0a0a0a"/><circle cx="1002.5849999999999" cy="472.915" r="18.915" fill="#a50036"/><circle cx="1040.415" cy="472.915" r="18.915" fill="#a50036"/><circle cx="1002.5849999999999" cy="510.745" r="18.915" fill="#c70036"/><circle cx="1040.415" cy="510.745" r="18.915" fill="#c70036"/><circle cx="1097.165" cy="491.835" r="37.835" fill="#a50036"/><circle cx="1172.835" cy="491.835" r="37.835" fill="#a50036"/><circle cx="37.835" cy="567.505" r="37.835" fill="#c70036"/><rect x="75.66666666666667" y="529.6666666666667" width="75.66666666666667" height="75.66666666666667" fill="#0a0a0a"/><circle cx="94.58500000000001" cy="548.5849999999999" r="18.915" fill="#c70036"/><circle cx="132.415" cy="548.5849999999999" r="18.915" fill="#a50036"/><circle cx="94.58500000000001" cy="586.415" r="18.915" fill="#c70036"/><circle cx="132.415" cy="586.415" r="18.915" fill="#a50036"/><circle cx="189.16500000000002" cy="567.505" r="37.835" fill="#a50036"/><rect x="227" y="529.6666666666667" width="75.66666666666667" height="75.66666666666667" fill="#0a0a0a"/><circle cx="245.915" cy="548.5849999999999" r="18.915" fill="#c70036"/><circle cx="283.745" cy="548.5849999999999" r="18.915" fill="#a50036"/><circle cx="245.915" cy="586.415" r="18.915" fill="#a50036"/><circle cx="283.745" cy="586.415" r="18.915" fill="#c70036"/><rect x="302.6666666666667" y="529.6666666666667" width="75.66666666666667" height="75.66666666666667" fill="#0a0a0a"/><circle cx="321.58500000000004" cy="548.5849999999999" r="18.915" fill="#a50036"/><circle cx="359.415" cy="548.5849999999999" r="18.915" fill="#a50036"/><circle cx="321.58500000000004" cy="586.415" r="18.915" fill="#a50036"/><circle cx="359.415" cy="586.415" r="18.915" fill="#a50036"/><circle cx="416.16499999999996" cy="567.505" r="37.835" fill="#a50036"/><rect x="454" y="529.6666666666667" width="75.66666666666667" height="75.66666666666667" fill="#0a0a0a"/><circle cx="472.915" cy="548.5849999999999" r="18.915" fill="#c70036"/><circle cx="510.745" cy="548.5849999999999" r="18.915" fill="#c70036"/><circle cx="472.915" cy="586.415" r="18.915" fill="#c70036"/><circle cx="510.745" cy="586.415" r="18.915" fill="#a50036"/><circle cx="567.505" cy="567.505" r="37.835" fill="#c70036"/><circle cx="643.1650000000001" cy="567.505" r="37.835" fill="#a50036"/><rect x="681" y="529.6666666666667" width="75.66666666666667" height="75.66666666666667" fill="#0a0a0a"/><circle cx="699.915" cy="548.5849999999999" r="18.915" fill="#a50036"/><circle cx="737.745" cy="548.5849999999999" r="18.915" fill="#a50036"/><circle cx="699.915" cy="586.415" r="18.915" fill="#c70036"/><circle cx="737.745" cy="586.415" r="18.915" fill="#c70036"/><rect x="756.6666666666667" y="529.6666666666667" width="75.66666666666667" height="75.66666666666667" fill="#0a0a0a"/><circle cx="775.5849999999999" cy="548.5849999999999" r="18.915" fill="#a50036"/><circle cx="813.415" cy="548.5849999999999" r="18.915" fill="#c70036"/><circle cx="775.5849999999999" cy="586.415" r="18.915" fill="#c70036"/><circle cx="813.415" cy="586.415" r="18.915" fill="#a50036"/><rect x="832.3333333333334" y="529.6666666666667" width="75.66666666666667" height="75.66666666666667" fill="#0a0a0a"/><circle cx="851.245" cy="548.5849999999999" r="18.915" fill="#c70036"/><circle cx="889.0849999999999" cy="548.5849999999999" r="18.915" fill="#a50036"/><circle cx="851.245" cy="586.415" r="18.915" fill="#c70036"/><circle cx="889.0849999999999" cy="586.415" r="18.915" fill="#c70036"/><circle cx="945.835" cy="567.505" r="37.835" fill="#c70036"/><circle cx="1021.505" cy="567.505" r="37.835" fill="#a50036"/><circle cx="1097.165" cy="567.505" r="37.835" fill="#c70036"/><circle cx="1172.835" cy="567.505" r="37.835" fill="#c70036"/><circle cx="37.835" cy="643.1650000000001" r="37.835" fill="#a50036"/><circle cx="113.505" cy="643.1650000000001" r="37.835" fill="#a50036"/><rect x="151.33333333333334" y="605.3333333333334" width="75.66666666666667" height="75.66666666666667" fill="#0a0a0a"/><circle cx="170.245" cy="624.245" r="18.915" fill="#c70036"/><circle cx="208.08499999999998" cy="624.245" r="18.915" fill="#c70036"/><circle cx="170.245" cy="662.0849999999999" r="18.915" fill="#a50036"/><circle cx="208.08499999999998" cy="662.0849999999999" r="18.915" fill="#a50036"/><rect x="227" y="605.3333333333334" width="75.66666666666667" height="75.66666666666667" fill="#0a0a0a"/><circle cx="245.915" cy="624.245" r="18.915" fill="#c70036"/><circle cx="283.745" cy="624.245" r="18.915" fill="#a50036"/><circle cx="245.915" cy="662.0849999999999" r="18.915" fill="#a50036"/><circle cx="283.745" cy="662.0849999999999" r="18.915" fill="#c70036"/><rect x="302.6666666666667" y="605.3333333333334" width="75.66666666666667" height="75.66666666666667" fill="#0a0a0a"/><circle cx="321.58500000000004" cy="624.245" r="18.915" fill="#a50036"/><circle cx="359.415" cy="624.245" r="18.915" fill="#a50036"/><circle cx="321.58500000000004" cy="662.0849999999999" r="18.915" fill="#c70036"/><circle cx="359.415" cy="662.0849999999999" r="18.915" fill="#a50036"/><rect x="378.33333333333337" y="605.3333333333334" width="75.66666666666667" height="75.66666666666667" fill="#0a0a0a"/><circle cx="397.245" cy="624.245" r="18.915" fill="#a50036"/><circle cx="435.08500000000004" cy="624.245" r="18.915" fill="#a50036"/><circle cx="397.245" cy="662.0849999999999" r="18.915" fill="#c70036"/><circle cx="435.08500000000004" cy="662.0849999999999" r="18.915" fill="#a50036"/><circle cx="491.835" cy="643.1650000000001" r="37.835" fill="#a50036"/><rect x="529.6666666666667" y="605.3333333333334" width="75.66666666666667" height="75.66666666666667" fill="#0a0a0a"/><circle cx="548.5849999999999" cy="624.245" r="18.915" fill="#c70036"/><circle cx="586.415" cy="624.245" r="18.915" fill="#a50036"/><circle cx="548.5849999999999" cy="662.0849999999999" r="18.915" fill="#a50036"/><circle cx="586.415" cy="662.0849999999999" r="18.915" fill="#a50036"/><circle cx="643.1650000000001" cy="643.1650000000001" r="37.835" fill="#a50036"/><rect x="681" y="605.3333333333334" width="75.66666666666667" height="75.66666666666667" fill="#0a0a0a"/><circle cx="699.915" cy="624.245" r="18.915" fill="#a50036"/><circle cx="737.745" cy="624.245" r="18.915" fill="#a50036"/><circle cx="699.915" cy="662.0849999999999" r="18.915" fill="#c70036"/><circle cx="737.745" cy="662.0849999999999" r="18.915" fill="#a50036"/><circle cx="794.505" cy="643.1650000000001" r="37.835" fill="#a50036"/><circle cx="870.1650000000001" cy="643.1650000000001" r="37.835" fill="#a50036"/><rect x="908" y="605.3333333333334" width="75.66666666666667" height="75.66666666666667" fill="#0a0a0a"/><circle cx="926.915" cy="624.245" r="18.915" fill="#c70036"/><circle cx="964.745" cy="624.245" r="18.915" fill="#c70036"/><circle cx="926.915" cy="662.0849999999999" r="18.915" fill="#c70036"/><circle cx="964.745" cy="662.0849999999999" r="18.915" fill="#c70036"/><rect x="983.6666666666667" y="605.3333333333334" width="75.66666666666667" height="75.66666666666667" fill="#0a0a0a"/><circle cx="1002.5849999999999" cy="624.245" r="18.915" fill="#c70036"/><circle cx="1040.415" cy="624.245" r="18.915" fill="#c70036"/><circle cx="1002.5849999999999" cy="662.0849999999999" r="18.915" fill="#a50036"/><circle cx="1040.415" cy="662.0849999999999" r="18.915" fill="#c70036"/><rect x="1059.3333333333335" y="605.3333333333334" width="75.66666666666667" height="75.66666666666667" fill="#0a0a0a"/><circle cx="1078.245" cy="624.245" r="18.915" fill="#c70036"/><circle cx="1116.085" cy="624.245" r="18.915" fill="#c70036"/><circle cx="1078.245" cy="662.0849999999999" r="18.915" fill="#a50036"/><circle cx="1116.085" cy="662.0849999999999" r="18.915" fill="#a50036"/><rect x="1135" y="605.3333333333334" width="75.66666666666667" height="75.66666666666667" fill="#0a0a0a"/><circle cx="1153.915" cy="624.245" r="18.915" fill="#a50036"/><circle cx="1191.745" cy="624.245" r="18.915" fill="#c70036"/><circle cx="1153.915" cy="662.0849999999999" r="18.915" fill="#a50036"/><circle cx="1191.745" cy="662.0849999999999" r="18.915" fill="#a50036"/></g></svg>